<?xml version="1.0" encoding="utf-8"?>
<!-- Generator: Adobe Adobe Illustrator 29.2.0, SVG Export Plug-In . SVG Version: 6.00 Build 0)  -->
<svg version="1.1" id="Layer_1" xmlns="http://www.w3.org/2000/svg" xmlns:xlink="http://www.w3.org/1999/xlink" x="0px" y="0px"
	 width="1318.84px" height="819.79px" viewBox="0 0 1318.84 819.79" style="enable-background:new 0 0 1318.84 819.79;"
	 xml:space="preserve">
<style type="text/css">
	.st0{opacity:0.549;}
	.st1{fill:#6A7282;stroke:#6A7282;stroke-miterlimit:10;}
	.st2{opacity:0.9216;}
	.st3{fill:#3B4568;}
	.st4{fill:#FFFFFF;}
	.st5{fill:none;stroke:#FFFFFF;stroke-width:2;stroke-miterlimit:10;}
	.st6{fill:#FFFFFF;stroke:#FFFFFF;stroke-width:2;stroke-miterlimit:10;}
	.st7{fill:#001049;}
	.st8{opacity:0.5294;}
	.st9{fill:#615FFF;}
	.st10{fill:#5E97FF;}
	.st11{fill:#02124B;}
	.st12{fill:#FBFBFC;}
	.st13{fill:#FEFEFE;}
	.st14{fill:#FDFDFD;}
	.st15{fill:#FCFCFD;}
	.st16{fill:#FAFBFC;}
	.st17{fill:#FAFAFC;}
	.st18{fill:#08174E;}
</style>
<g class="st0">
	<g>
		<g>
			<line class="st1" x1="200" y1="137.11" x2="200" y2="471.4"/>
			<line class="st1" x1="256.09" y1="137.11" x2="256.09" y2="471.4"/>
			<line class="st1" x1="312.18" y1="137.11" x2="312.18" y2="471.4"/>
			<line class="st1" x1="368.27" y1="137.11" x2="368.27" y2="471.4"/>
			<line class="st1" x1="424.36" y1="137.11" x2="424.36" y2="471.4"/>
		</g>
	</g>
	<g>
		<g>
			<line class="st1" x1="141.1" y1="413.4" x2="474.15" y2="413.4"/>
			<line class="st1" x1="141.1" y1="358.69" x2="474.15" y2="358.69"/>
			<line class="st1" x1="141.1" y1="303.98" x2="474.15" y2="303.98"/>
			<line class="st1" x1="141.1" y1="249.27" x2="474.15" y2="249.27"/>
			<line class="st1" x1="141.1" y1="194.56" x2="474.15" y2="194.56"/>
		</g>
	</g>
</g>
<g class="st2">
	<g>
		<rect x="785.89" y="185.62" class="st3" width="65.69" height="65.41"/>
		<rect x="851.57" y="251.02" class="st3" width="65.69" height="65.41"/>
		<rect x="917.26" y="185.62" class="st3" width="65.69" height="65.41"/>
		<rect x="982.95" y="251.02" class="st3" width="65.69" height="65.41"/>
	</g>
	<rect x="1037.39" y="156.1" class="st3" width="43.16" height="42.98"/>
	<rect x="967.55" y="106.18" class="st3" width="50.13" height="49.92"/>
	<rect x="1038.34" y="72.44" class="st3" width="22.52" height="22.43"/>
	<rect x="1083.86" y="106.18" class="st3" width="22.52" height="22.43"/>
	<rect x="1106.38" y="61.23" class="st3" width="22.52" height="22.43"/>
</g>
<g>
	<rect x="571.42" y="338.77" class="st4" width="33.17" height="90.89"/>
	
		<rect x="644.32" y="229.74" transform="matrix(-1.836970e-16 1 -1 -1.836970e-16 962.5325 -362.1543)" class="st4" width="36.05" height="140.91"/>
	<rect x="650.01" y="317.91" class="st4" width="40.78" height="112.85"/>
	<polygon class="st4" points="746.37,282.31 747.68,282.88 732.95,318.21 731.64,317.64 	"/>
	<rect x="569.02" y="314.36" class="st4" width="81.99" height="4.61"/>
	<polygon class="st4" points="550.38,259.76 560.36,256.58 578.77,316.78 568.79,319.97 	"/>
	<polygon class="st4" points="596.91,299.54 548.28,161.38 553.43,159.48 602.05,297.65 	"/>
	<polygon class="st4" points="507.43,302.15 549.22,158.13 553.47,159.42 511.68,303.44 	"/>
	<polygon class="st4" points="457.6,455.89 516.11,271.57 521.31,273.3 462.8,457.62 	"/>
	<polygon class="st4" points="432.46,385.31 420.68,340.21 425.96,338.77 437.74,383.87 	"/>
	
		<rect x="353.44" y="272.04" transform="matrix(-6.457468e-06 -1 1 -6.457468e-06 14.6741 697.8062)" class="st4" width="5.59" height="139.05"/>
	<polygon class="st4" points="294.98,373.32 287.01,342.77 292.75,341.2 300.73,371.75 	"/>
	
		<rect x="348.82" y="313.88" transform="matrix(-7.925973e-06 -1 1 -7.925973e-06 -18.9063 722.14)" class="st4" width="5.59" height="113.29"/>
	<polygon class="st4" points="454.84,552.02 399.51,371.13 404.74,369.47 460.06,550.36 	"/>
	<polygon class="st4" points="741.15,391.06 771.17,284.19 802.07,293.25 772.05,400.13 	"/>
	<polygon class="st4" points="810.79,400.36 777.95,294.35 809.34,284.19 842.18,390.2 	"/>
	
		<rect x="785.64" y="270.01" transform="matrix(5.791396e-07 -1 1 5.791396e-07 501.6049 1079.3679)" class="st4" width="9.69" height="37.75"/>
	
		<rect x="788.27" y="359.53" transform="matrix(5.791396e-07 -1 1 5.791396e-07 414.7138 1171.515)" class="st4" width="9.69" height="37.75"/>
	
		<rect x="787.04" y="369.18" transform="matrix(3.331330e-07 -1 1 3.331330e-07 389.8999 1193.8781)" class="st4" width="9.69" height="65.63"/>
	
		<rect x="737.45" y="407.87" transform="matrix(6.058957e-07 -1 1 6.058957e-07 316.3811 1168.2097)" class="st4" width="9.69" height="36.08"/>
	<polygon class="st4" points="724.25,421.18 738.95,385.64 747.68,389.41 732.99,424.95 	"/>
	<polygon class="st4" points="821.83,430.53 809.41,407.11 818.4,402.13 830.82,425.55 	"/>
	
		<rect x="835.03" y="407.75" transform="matrix(2.312892e-06 1 -1 2.312892e-06 1265.7917 -413.9662)" class="st4" width="9.69" height="36.32"/>
	<polygon class="st4" points="849.39,424.93 835.98,394.66 844.61,390.67 858.02,420.93 	"/>
	<rect x="873.48" y="283.02" class="st4" width="9.48" height="26.64"/>
	
		<rect x="890.57" y="274.83" transform="matrix(3.223287e-06 1 -1 3.223287e-06 1183.27 -607.5605)" class="st4" width="9.69" height="26.06"/>
	<rect x="873.47" y="403.01" class="st4" width="9.48" height="26.3"/>
	
		<rect x="933.23" y="387.61" transform="matrix(3.223286e-06 1 -1 3.223286e-06 1338.7145 -537.4387)" class="st4" width="9.69" height="26.06"/>
	<polygon class="st4" points="751.43,426.53 761.57,401.99 770.3,405.76 760.16,430.3 	"/>
	<rect x="709.7" y="282.19" class="st4" width="37.68" height="1.45"/>
	<polygon class="st4" points="743.86,285.07 745.17,285.64 732.95,314.96 731.65,314.39 	"/>
	<g>
		<g>
			<path class="st4" d="M493.39,445.6c-7.03,21.86-13.89,43.06-20.66,64.3c-4.18,13.1-8.23,26.25-12.67,40.45
				c-4.24-3.58-5-7.73-6.18-11.6c-8.24-26.99-16.54-53.96-24.71-80.98c-8.01-26.49-16.13-52.95-23.63-79.6
				c-1.78-6.34-5.19-6.99-10.13-6.98c-29.97,0.07-59.93-0.16-89.9,0.18c-6.78,0.08-10.48-2.19-12.46-9.08
				c-2.08-7.22-5.48-14.02-6.25-21.36c3.3-2.54,6.37-1.77,9.25-1.77c39.95-0.05,79.91,0.17,119.86-0.21
				c6.9-0.07,10.29,2.53,12.26,9.04c8.89,29.48,17.91,58.92,26.92,88.36c1.07,3.51,2.37,6.95,4.49,13.09
				c31.09-97.36,61.48-192.51,92.31-289.06c6.11,8.4,7.31,17.25,9.89,25.28c9.3,29,18.09,58.18,26.86,87.37
				c2.14,7.13,5.47,10.28,13.25,10.2c44-0.46,88.01-0.25,132.01-0.23c10.82,0.01,11.99,1.9,8.05,12.51
				c-8.29,22.34-8.29,22.16-31.11,22.46c-7.69,0.1-17.39-3.56-22.55,2.05c-4.82,5.24-1.45,15.28-1.52,23.19
				c-0.22,25.13-0.44,50.27,0.11,75.39c0.19,8.92-2.66,11.75-10.66,10.86c-5.07-0.57-10.28-0.5-15.37-0.03
				c-7.08,0.65-9.43-2.25-9.35-9.77c0.33-28.56,0.2-57.12,0.11-85.68c-0.06-18.06,1.93-15.97-15.08-16.05
				c-18.9-0.1-37.8-0.2-56.69,0.07c-6.03,0.09-9.24-1.95-11.13-8.35c-4.76-16.19-10.24-32.14-17.38-48.44
				C532.08,322.47,512.84,383.71,493.39,445.6z"/>
			<path class="st4" d="M806.71,405.48c-11.5,0.01-22.29,0.21-33.07-0.05c-4.91-0.12-6.91,1.91-8.35,6.9
				c-6.33,21.92-3.29,17.59-23.43,18.16c-3.5,0.1-7.02,0.18-10.52,0.06c-7.33-0.26-8.33-2.06-5.79-9.61
				c14.26-42.25,28.57-84.47,42.65-126.79c2.19-6.58,5.56-9.82,12.36-9.43c7.53,0.43,15.1,0.11,22.65,0.2
				c4.53,0.05,6.9,2.14,8.55,7.12c13.84,41.72,28.1,83.28,42.19,124.91c1.25,3.71,2.24,7.51,3.65,12.28
				c-11.67,2.16-22.84,1.82-33.94,0.53c-3.98-0.46-4.12-5.12-5.55-8.51C815.64,415.34,817.14,405.96,806.71,405.48z M794.9,375.43
				c2.58-0.31,5.41,0.71,8.29-2.11c-3.9-12.58-7.88-25.44-11.87-38.3c-0.69,0.03-1.38,0.05-2.07,0.08
				c-3.53,13.06-9.53,25.35-10.97,39.27C783.82,376.2,788.69,375.11,794.9,375.43z"/>
			<path class="st4" d="M909.66,429.36c-10.26-0.01-19.71-0.2-29.15,0.04c-5.21,0.13-7.1-2.01-7.09-7.54
				c0.13-43.7,0.13-87.39,0.01-131.09c-0.01-5.6,2.28-7.74,7.25-7.7c5.94,0.05,11.9,0.27,17.81-0.14c7.37-0.51,10.03,2.73,9.96,10.5
				c-0.26,29.41-0.09,58.83-0.09,88.25c0,14.13-0.02,14.12,12.94,14.12c8.1,0,16.2-0.03,24.3,0.04c2.37,0.02,5.56-0.49,6.36,2.47
				c2.7,10.01,8.55,19.02,9.01,31.05C943.81,429.36,927.14,429.36,909.66,429.36z"/>
			<path class="st4" d="M572.17,368.82c0.01-7.97,0.2-15.09-0.03-22.2c-0.18-5.56,2.1-7.67,7.2-7.47c5.64,0.23,11.3,0.21,16.94-0.01
				c5.01-0.19,7.5,1.84,7.49,7.38c-0.07,25.33-0.06,50.66,0.03,75.99c0.02,5.21-2.37,6.66-6.97,6.91
				c-24.66,1.37-24.66,1.47-24.66-24.75C572.17,393.02,572.17,381.35,572.17,368.82z"/>
			<path class="st4" d="M858.4,518.98c-0.01,2.43-0.19,4.17,0.01,5.85c0.86,7.12-2.02,9.32-8.69,9.29
				c-6.65-0.03-8.93-2.26-8.78-9.36c0.38-18.54,0.41-37.1,0.02-55.64c-0.16-7.38,3.22-8.3,8.89-8.39c6-0.1,9.17,1.56,8.61,8.65
				c-0.44,5.55-0.09,11.16-0.09,18.61c5.43-6.4,10.37-10.67,13.42-16.13c6.37-11.42,15.46-12.72,26.55-10.1
				c0.27,4.76-3.35,6.85-5.63,9.77c-3.42,4.4-6.81,8.82-10.27,13.19c-11.03,13.94-9.5,10.21,0.88,23.01
				c6.6,8.14,13.49,16.01,20.42,24.2c-13.22,5.14-22.71,2.24-30.84-8.61c-4.1-5.46-8.58-10.6-14.5-17.87
				C858.4,511.56,858.4,514.91,858.4,518.98z"/>
			<path class="st4" d="M653.68,495.63c0.03-9.71,0.19-18.56,0.04-27.41c-0.12-7.12,4.12-7.3,9.14-7.43
				c5.43-0.15,8.14,1.73,7.65,7.84c-0.27,3.4-0.04,6.85-0.03,10.28c0.02,9.87,8.71,15.09,17.32,10.49c2.38-1.27,2.58-3.45,2.61-5.77
				c0.06-4,0.04-7.99,0.06-11.99c0.06-10.01,4.75-13.48,13.8-10.55c3.12,1.01,3.36,3.34,3.36,5.95c0.02,20.27-0.07,40.55,0.03,60.82
				c0.03,5.93-3.52,6.27-7.56,6.01c-4.02-0.26-9.33,1.56-9.52-5.75c-0.14-5.42-0.3-10.86-0.11-16.27c0.29-8.39-5.37-6.99-10.05-6.99
				c-4.72,0-10.37-1.25-9.98,7.1c0.2,4.27-0.2,8.58,0.06,12.84c0.37,6.12-0.95,9.46-7.89,9.32c-6.57-0.13-9.28-2.19-8.98-9.37
				C654.06,515.35,653.71,505.91,653.68,495.63z"/>
			<path class="st4" d="M777.62,529.49c-3.2,6.38-14.49,5.95-17.88,0.18c-1.89-3.21-1.72-8.69-6.28-9.12
				c-6.66-0.63-13.45-1.13-20.08,0.35c-2.22,0.49-3.01,3.08-3.93,5.14c-3.29,7.34-8.41,9.68-16.02,7.72c-3.88-1-3.73-3.46-2.62-6.42
				c7.47-20.01,15.02-39.98,22.43-60.02c2.01-5.43,5.73-6.5,10.84-6.64c5.61-0.16,8.36,2.58,10.24,7.54
				C761.96,488.45,769.69,508.64,777.62,529.49z M745.13,489.32c-0.15-0.23-0.26-0.52-0.46-0.68c-0.2-0.16-0.67-0.34-0.7-0.28
				c-2.74,4.43-4.69,9.18-5.39,14.65c3.5,0.75,7.06,1.85,9.29-1.01c2.19-2.79-0.32-5.79-1.51-8.55
				C745.92,492.43,745.7,491.32,745.13,489.32z"/>
			<path class="st4" d="M813.13,477.61c-9.86,1.74-15.81,7.5-17.67,16.99c-1.64,8.37,1.78,15.14,8.72,19.46
				c4.72,2.94,9.98,4.2,15.51,3.29c12.29-2.02,12.29-2.04,16.75,10.02c-13.16,13.76-36.06,9.28-48.76-3.57
				c-13.67-13.83-13.88-36.68-0.63-51.37c12.67-14.05,38.24-16.5,49.74-4.58c-1.79,4.58-2.97,9.6-7.34,12.77
				C824.25,479.42,819.32,476.65,813.13,477.61z"/>
			<path class="st4" d="M922.66,461.98c8.41-2.07,16.14-1.68,23.72,0.79c3.8,1.24,7.54,3.57,5.52,8.49
				c-1.71,4.15-2.71,10.88-9.9,7.53c-3.59-1.67-7.34-1.63-11.12-1.38c-2.29,0.15-4.38,1.06-5.07,3.52c-0.79,2.83,1.5,4.11,3.29,5.2
				c5.58,3.39,11.21,6.7,16.94,9.8c6.63,3.59,8.94,9.92,8.87,16.97c-0.07,7.6-2.27,14.58-9.51,18.44
				c-13.02,6.93-25.51,5.26-37.66-2.38c-6.37-4.01-1.81-8.26-0.04-12.3c1.88-4.29,4.29-6.1,8.77-2.66c2.96,2.27,6.64,3.8,10.22,4.76
				c3.43,0.92,7.24,0.62,8.92-3.7c1.8-4.62-1.44-6.84-4.44-8.76c-3.21-2.05-6.78-3.49-9.98-5.57
				C904.26,489.69,904.66,473.18,922.66,461.98z"/>
			<path class="st4" d="M635.31,491.39c-6.33,16.01-12.4,31.43-18.55,46.81c-0.72,1.81-1.63,3.68-2.89,5.06
				c-3.05,3.33-7.15,3.18-10.47,1.34c-3.7-2.06-1.13-5.43-0.04-8.2c9.16-23.32,18.31-46.64,27.49-69.95
				c3.61-9.18,5.86-10.22,16.71-6.9C643.53,470.03,639.55,480.4,635.31,491.39z"/>
			<path class="st4" d="M592.6,521.12c-13.62-5.49-26.66-10.73-39.52-16.44c-6.04-2.68-6.52-10.88-0.57-13.86
				c13.46-6.74,27.07-13.26,41.47-17.54c3.09,9.56,1.97,12.83-5.65,15.74c-5.8,2.22-11.49,4.61-17.43,8.26
				c5.85,5,12.71,6.57,18.85,9.58C596.73,510.28,597.67,513.67,592.6,521.12z"/>
			<path class="st4" d="M999.12,506.35c-12.66,5.4-24.73,10.53-37.03,15.76c-2.58-8.86-1.1-14.14,7.03-16.66
				c5.61-1.74,10.88-4.66,16.94-7.34c-5.51-4.4-11.47-6.49-17.24-8.59c-8.03-2.92-9.26-8.2-6.58-16.34
				c14.54,5.02,28.27,11.19,41.85,17.8c3.52,1.71,3.19,4.74,3.28,7.88C1007.52,504.58,1002.8,504.33,999.12,506.35z"/>
		</g>
		<g>
			<line class="st5" x1="1007.36" y1="261.37" x2="1200.47" y2="261.37"/>
			<ellipse class="st5" cx="1210.45" cy="261.37" rx="9.99" ry="10.21"/>
		</g>
		<g>
			<line class="st6" x1="311.18" y1="477.51" x2="118.07" y2="477.51"/>
			<line class="st6" x1="118.07" y1="477.51" x2="19.38" y2="539.72"/>
			<ellipse class="st5" cx="11.89" cy="545.17" rx="9.99" ry="10.21"/>
		</g>
		<g>
			<line class="st5" x1="311.18" y1="429.31" x2="118.07" y2="429.31"/>
			<ellipse class="st5" cx="108.09" cy="429.31" rx="9.99" ry="10.21"/>
		</g>
		<g>
			<line class="st6" x1="1007.36" y1="305.43" x2="1200.47" y2="305.43"/>
			<line class="st6" x1="1200.47" y1="305.43" x2="1299.16" y2="367.64"/>
			<ellipse class="st5" cx="1306.65" cy="373.09" rx="9.99" ry="10.21"/>
		</g>
		<g>
			<g>
				<line class="st5" x1="380.42" y1="586.53" x2="380.42" y2="688.18"/>
				<ellipse class="st5" cx="380.42" cy="698.39" rx="9.99" ry="10.21"/>
			</g>
			<g>
				<line class="st5" x1="420.1" y1="586.53" x2="420.1" y2="783.9"/>
				<ellipse class="st5" cx="420.1" cy="794.11" rx="9.99" ry="10.21"/>
			</g>
			<g>
				<line class="st5" x1="460.94" y1="586.53" x2="460.94" y2="688.18"/>
				<ellipse class="st5" cx="460.94" cy="698.39" rx="9.99" ry="10.21"/>
			</g>
		</g>
		<g>
			<g>
				<line class="st5" x1="948.71" y1="229.51" x2="948.71" y2="127.86"/>
				<ellipse class="st5" cx="948.71" cy="117.66" rx="9.99" ry="10.21"/>
			</g>
			<g>
				<line class="st5" x1="909.03" y1="229.51" x2="909.03" y2="32.14"/>
				<ellipse class="st5" cx="909.03" cy="21.94" rx="9.99" ry="10.21"/>
			</g>
			<g>
				<line class="st5" x1="868.19" y1="229.51" x2="868.19" y2="127.86"/>
				<ellipse class="st5" cx="868.19" cy="117.66" rx="9.99" ry="10.21"/>
			</g>
		</g>
	</g>
</g>
<rect x="544.43" y="455.73" class="st7" width="465" height="93.31"/>
<g>
	<g class="st8">
		<rect x="1023.83" y="458.54" class="st9" width="61.94" height="319"/>
		
			<rect x="1023.15" y="461.99" transform="matrix(-1.836970e-16 1 -1 -1.836970e-16 1672.8442 -436.762)" class="st9" width="63.31" height="312.1"/>
	</g>
	<g class="st8">
		<rect x="1033.25" y="447.08" class="st10" width="61.94" height="319"/>
		
			<rect x="1032.56" y="450.53" transform="matrix(-1.836970e-16 1 -1 -1.836970e-16 1670.8 -457.6349)" class="st10" width="63.31" height="312.1"/>
	</g>
</g>
<g>
	<g>
		<path class="st11" d="M843.36,555.26c-114.87,0-229.3,0-343.74,0c0-31.18,0-62.37,0-93.55c170.11,0,340.23,0,510.34,0
			c0,31.18,0,62.37,0,93.55C954.57,555.26,899.19,555.26,843.36,555.26z"/>
		<path class="st12" d="M672.16,502.99c0,14.18,0,27.91,0,41.96c-5.85,0-11.44,0-17.44,0c0-10.49,0-20.94,0-31.6
			c-9.27,0-18.13,0-27.41,0c0,10.42,0,20.88,0,31.63c-6.03,0-11.65,0-17.52,0c0-25.47,0-50.9,0-76.63c5.67,0,11.26,0,17.26,0
			c0,9.63,0,19.17,0,28.92c9.37,0,18.34,0,27.69,0c0-9.75,0-19.29,0-29.02c5.87,0,11.36,0,17.42,0
			C672.16,479.73,672.16,491.13,672.16,502.99z"/>
		<path class="st13" d="M823.19,528.67c0-20.3,0-40.15,0-60.3c5.76,0,11.37,0,17.32,0c0,10.48,0,21.11,0,31.74
			c0.25,0.11,0.51,0.22,0.76,0.33c2.04-3.12,4.06-6.25,6.12-9.35c4.49-6.76,9.08-13.45,13.47-20.28c1.27-1.98,2.57-2.88,4.93-2.81
			c5.82,0.19,11.65,0.06,18.35,0.06c-8.47,11.19-16.55,21.86-24.92,32.93c8.54,14.42,17.15,28.95,26.23,44.27
			c-6.86,0-12.91-0.03-18.96,0.02c-1.94,0.02-2.28-1.64-2.98-2.89c-4.71-8.4-9.37-16.83-14.06-25.24c-0.79-1.42-1.62-2.82-2.44-4.27
			c-4.91,3.76-6.98,8.29-6.4,14.54c0.53,5.73,0.11,11.55,0.11,17.58c-5.86,0-11.46,0-17.53,0
			C823.19,539.72,823.19,534.42,823.19,528.67z"/>
		<path class="st14" d="M712.74,525.69c-3.03,0-5.63,0-8.33,0c-1.82,6.62-3.54,12.87-5.31,19.34c-5.86,0-11.66,0-18.08,0
			c7.68-25.69,15.32-51.26,23-76.96c6.95,0,13.66,0.07,20.37-0.05c1.8-0.03,2.68,0.71,3.17,2.35c7.34,24.36,14.68,48.72,22.01,73.09
			c0.12,0.41,0.02,0.9,0.02,1.59c-5.95,0-11.88,0-18.24,0c-1.88-6.25-3.81-12.69-5.81-19.35
			C721.32,525.69,717.24,525.69,712.74,525.69z"/>
		<path class="st15" d="M890.62,542.57c-1.06-0.4-1.75-0.92-1.55-1.76c1.07-4.56,2.24-9.1,3.42-13.82
			c6.55,2.98,12.93,4.94,19.78,4.68c2.2-0.09,4.37-0.28,6.41-1.26c5.32-2.56,6.12-8.67,1.58-12.56c-2.64-2.26-5.84-3.44-9.01-4.58
			c-4.16-1.49-8.18-3.26-11.82-5.85c-13.41-9.54-12.67-28.45,1.71-36.36c12.04-6.62,24.44-5.15,36.98-0.41
			c-1.33,4.87-2.55,9.35-3.87,14.16c-4.74-1.22-9.18-3.25-14.04-3.24c-2.93,0.01-5.82-0.08-8.56,1.27
			c-4.97,2.45-5.58,7.9-1.11,11.23c3.35,2.5,7.33,3.72,11.12,5.29c3.67,1.51,7.28,3.14,10.51,5.57
			c12.44,9.33,11.79,28.27-1.44,36.44c-10.59,6.54-22.06,5.83-33.57,3.43C895.03,544.36,893.01,543.41,890.62,542.57z"/>
		<path class="st15" d="M800.96,546.1c-6.39,0.37-12.37,0.63-18.31-0.63c-19.26-4.1-30.47-19.44-29.15-39.93
			c1.54-23.9,17.08-38.62,41.02-38.74c6.42-0.03,12.78,0.64,19,3.55c-1.19,4.67-2.38,9.3-3.54,13.85
			c-12.49-3.45-24.45-5.32-33.69,6.47c-5.98,7.64-6.45,22.42-0.86,30.75c8.9,13.25,21.56,10.79,34.5,8.03
			c0.88,4.41,1.77,8.85,2.69,13.43C809.17,545.16,805.1,545.02,800.96,546.1z"/>
		<path class="st16" d="M1002.34,521.49c-17.11,8.02-33.9,15.91-50.66,23.79c-0.27-0.53-0.38-0.64-0.39-0.76
			c-0.7-11.59-0.68-11.55,9.55-15.95c9.54-4.1,19.03-8.31,28.55-12.48c0.78-0.34,1.75-0.42,2.08-1.7
			c-11.84-5.21-23.63-10.65-35.63-15.51c-3.86-1.56-5.22-3.6-4.69-7.67c0.27-2.09,0.05-4.25,0.05-7.11
			c5.14,2.41,9.85,4.63,14.58,6.83c12.09,5.63,24.18,11.23,36.26,16.88c1.68,0.79,3.85,1.42,3.17,4.09
			C1004.39,515.06,1007.56,519.41,1002.34,521.49z"/>
		<path class="st12" d="M506.95,508.91c17.45-8.31,34.62-16.44,52.3-24.82c0,3.98-0.13,7.31,0.04,10.61
			c0.13,2.39-1.55,2.65-2.96,3.29c-12.15,5.47-24.32,10.91-36.54,16.38c0.79,1.83,2.55,1.91,3.93,2.53
			c10.41,4.69,20.81,9.42,31.31,13.88c3.29,1.4,4.77,3.28,4.27,7.04c-0.3,2.24-0.06,4.56-0.06,7.56
			c-5.28-2.45-10.24-4.71-15.17-7.05c-11.51-5.46-23.01-10.96-34.51-16.44C504.71,519.58,503.49,514.22,506.95,508.91z"/>
		<path class="st17" d="M593.54,498.57c-4.55,15.91-9.12,31.44-13.43,47.04c-0.94,3.39-2.35,4.78-5.74,4.3
			c-2.28-0.32-4.63-0.06-7.38-0.06c8.07-27.94,16.03-55.5,23.93-82.84c4,0,7.58,0,11.79,0C599.6,477.7,596.61,487.95,593.54,498.57z
			"/>
		<path class="st18" d="M716.67,489.59c2.12,7.61,4.1,14.88,6.16,22.4c-5.26,0-10.17,0-15.63,0c2.55-9.98,5.06-19.81,7.72-30.23
			C715.55,484.66,716.05,486.95,716.67,489.59z"/>
	</g>
</g>
<rect x="738.16" y="282.19" class="st4" width="8.26" height="3.69"/>
</svg>
