<svg version="1.1" id="Layer_1" xmlns="http://www.w3.org/2000/svg" xmlns:xlink="http://www.w3.org/1999/xlink" x="0px" y="0px"
	 width="75" height="75" viewBox="0 0 1243 1228" enable-background="new 0 0 1243 1228" xml:space="preserve">
<path fill="#001049" opacity="0" stroke="none" 
	d="
M702.000000,1229.000000 
	C468.000000,1229.000000 234.500000,1229.000000 1.000000,1229.000000 
	C1.000000,819.666687 1.000000,410.333344 1.000000,1.000000 
	C415.333344,1.000000 829.666687,1.000000 1244.000000,1.000000 
	C1244.000000,410.333344 1244.000000,819.666687 1244.000000,1229.000000 
	C1063.500000,1229.000000 883.000000,1229.000000 702.000000,1229.000000 
M796.172668,1098.944458 
	C795.293945,1084.357788 788.590759,1072.934570 776.021973,1065.856567 
	C759.147522,1056.353760 742.783630,1059.020386 727.732971,1070.457153 
	C727.038452,1069.977295 726.572876,1069.753174 726.232117,1069.406372 
	C695.751587,1038.387207 665.259033,1007.379883 634.881836,976.259827 
	C633.554016,974.899536 632.633545,972.503418 632.626953,970.585999 
	C632.499451,933.587585 632.577209,896.588440 632.475708,859.589905 
	C632.466064,856.071838 633.622375,855.068115 637.064453,855.020081 
	C650.892700,854.827026 664.716736,854.336914 678.543091,853.985840 
	C679.652588,853.957703 680.767761,854.151978 682.402527,854.285706 
	C682.402527,856.349304 682.402527,858.138672 682.402527,859.927979 
	C682.402771,879.260742 682.199280,898.597534 682.585510,917.922546 
	C682.657471,921.526306 684.364441,925.672974 686.643677,928.499084 
	C689.042297,931.473145 693.153442,931.411194 696.788269,929.461121 
	C700.810242,927.303406 702.087524,923.679138 702.093384,919.450562 
	C702.121704,898.951172 702.106384,878.451843 702.106506,857.952454 
	C702.106506,856.205200 702.106445,854.457947 702.106445,852.615173 
	C717.689209,851.168762 732.582581,849.786255 748.103027,848.345642 
	C748.103027,850.572449 748.103027,852.524963 748.103027,854.477478 
	C748.103149,890.976379 748.095337,927.475220 748.123169,963.974121 
	C748.124817,966.125000 748.139404,968.339722 748.624756,970.413147 
	C749.678650,974.914429 753.625061,977.891418 758.040894,977.881287 
	C762.429260,977.871216 766.453064,974.853210 767.495117,970.422668 
	C767.982483,968.350220 767.991760,966.134277 767.993286,963.983215 
	C768.020508,926.151001 768.087280,888.318481 767.907898,850.487122 
	C767.888123,846.309814 769.045898,844.789185 773.169189,844.023193 
	C787.913452,841.284302 802.463745,837.832031 816.020203,830.999878 
	C823.649902,827.154724 828.946106,821.402405 830.963501,813.252563 
	C834.356445,799.545898 837.440857,785.747742 840.082031,771.878967 
	C840.910095,767.530884 842.278320,766.255920 846.674866,766.272400 
	C890.839539,766.438049 935.005249,766.418640 979.170166,766.293579 
	C983.010681,766.282715 984.855408,767.182617 986.279907,771.109314 
	C995.377441,796.188538 1027.631714,805.380737 1048.810791,789.171448 
	C1062.754028,778.500061 1068.444824,760.681335 1063.219971,744.054810 
	C1057.986328,727.400269 1042.780884,715.996948 1025.015869,715.403687 
	C1008.264648,714.844177 992.335876,725.408142 986.182312,741.680176 
	C984.764404,745.429810 983.052063,746.546265 979.114746,746.532227 
	C935.783264,746.377808 892.451111,746.435242 849.119080,746.435242 
	C847.333923,746.435242 845.548767,746.435242 843.408081,746.435242 
	C844.518677,733.604309 845.570557,721.451050 846.639832,709.097046 
	C848.655579,709.097046 849.975769,709.096802 851.295959,709.097107 
	C887.128174,709.105347 922.960388,709.140015 958.792419,709.066895 
	C961.395142,709.061584 964.746155,709.124146 966.421509,707.648071 
	C968.902649,705.462036 971.148926,702.104004 971.742920,698.918213 
	C972.435181,695.205383 970.149780,691.687195 966.164612,690.475647 
	C963.514282,689.669861 960.618896,689.365295 957.832092,689.359558 
	C923.166687,689.288269 888.500977,689.312866 853.835388,689.312805 
	C851.925598,689.312805 850.015808,689.312805 849.077881,689.312805 
	C849.077881,677.680359 849.290710,666.863831 848.978882,656.062500 
	C848.843811,651.381287 850.427917,650.258240 854.947815,650.278564 
	C893.445923,650.451782 931.945129,650.331360 970.443665,650.447754 
	C974.396606,650.459717 977.372070,649.447632 980.145142,646.545898 
	C990.820618,635.375122 1001.551941,624.250549 1012.517029,613.365234 
	C1034.511475,591.530640 1056.708496,569.900085 1078.714111,548.076721 
	C1081.037964,545.772095 1083.069336,545.430969 1086.212158,546.078186 
	C1100.205933,548.960449 1112.722900,545.604187 1123.126709,535.745544 
	C1137.388794,522.230957 1139.956421,501.002197 1129.635742,484.529846 
	C1119.398071,468.189880 1099.136841,461.161957 1081.195435,467.727570 
	C1062.564941,474.545349 1051.495728,492.265808 1054.905884,511.859344 
	C1056.255249,519.611694 1060.256592,526.902527 1063.050537,534.403442 
	C1063.898315,534.868408 1063.354248,535.690369 1062.669922,536.371277 
	C1032.231812,566.656372 1001.822571,596.970947 971.230713,627.100098 
	C969.376221,628.926514 966.062927,630.150330 963.420166,630.164917 
	C927.589050,630.362610 891.756409,630.296448 855.924194,630.295471 
	C854.140930,630.295410 852.357666,630.295471 850.203979,630.295471 
	C850.203979,612.993286 850.203979,596.280579 850.203979,579.226379 
	C852.329163,579.226379 854.147766,579.226379 855.966309,579.226379 
	C874.965698,579.226257 893.968689,579.411316 912.961182,579.049316 
	C916.244507,578.986694 920.068970,577.284180 922.589661,575.114746 
	C925.511292,572.600342 925.558044,568.585754 923.613770,564.955872 
	C921.473267,560.959534 917.918396,559.632263 913.627319,559.634460 
	C894.127930,559.644470 874.628479,559.637268 855.129089,559.636292 
	C853.323303,559.636230 851.517517,559.636353 849.453308,559.636353 
	C848.535400,544.009521 847.645020,528.852600 846.741821,513.476501 
	C849.520874,513.476501 851.516235,513.476501 853.511597,513.476501 
	C888.343872,513.476440 923.176147,513.496399 958.008301,513.436462 
	C960.641479,513.431946 963.406799,513.268250 965.878845,512.465088 
	C971.056030,510.782990 973.363403,504.784332 971.144653,499.780243 
	C968.898560,494.714600 964.544495,493.645508 959.612000,493.647003 
	C923.113281,493.658264 886.614502,493.669159 850.115784,493.680054 
	C848.325317,493.680573 846.534851,493.680145 845.377502,493.680145 
	C842.407410,479.504883 839.933472,465.931274 836.663757,452.552063 
	C832.812378,436.792511 823.684998,425.753876 806.938049,422.519379 
	C794.685852,420.152985 782.474365,417.521759 770.152100,415.603394 
	C766.010620,414.958679 765.147766,413.538208 765.158813,409.682922 
	C765.283997,366.017914 765.285400,322.352325 765.153503,278.687378 
	C765.142212,274.966492 766.203064,273.264587 769.764709,271.849030 
	C791.778259,263.100006 802.093262,238.970367 793.029480,218.090408 
	C785.486450,200.713699 768.208801,190.597595 750.527771,193.205551 
	C730.833191,196.110504 716.950928,209.992432 714.548218,229.184464 
	C712.292603,247.200546 723.129089,265.058716 740.837830,271.890106 
	C744.302124,273.226501 745.542542,274.730103 745.528320,278.554718 
	C745.368713,321.552826 745.427429,364.551727 745.427551,407.550415 
	C745.427551,409.290009 745.427551,411.029633 745.427551,412.883850 
	C732.495789,411.986053 720.432739,411.148560 708.054199,410.289154 
	C708.054199,407.972748 708.054199,406.165344 708.054199,404.357971 
	C708.054199,377.858765 708.050537,351.359589 708.056091,324.860382 
	C708.058044,315.694122 708.162964,306.527008 708.061096,297.362030 
	C708.014771,293.192657 706.729370,289.548828 702.680420,287.372345 
	C699.009521,285.399078 695.515198,285.862946 692.313782,288.106201 
	C688.439697,290.820770 688.231445,295.078888 688.231995,299.325470 
	C688.236511,333.991089 688.234009,368.656677 688.233582,403.322296 
	C688.233582,405.244537 688.233582,407.166779 688.233582,408.762024 
	C674.743469,408.762024 662.031616,408.762024 649.095581,408.762024 
	C649.095581,406.243378 649.095520,404.420715 649.095581,402.598083 
	C649.096130,363.932587 649.056580,325.266998 649.165894,286.601807 
	C649.175720,283.155457 648.135864,280.751831 645.715820,278.304321 
	C613.145569,245.365067 580.696960,212.305679 548.149353,179.344025 
	C546.088196,177.256653 545.177551,175.455353 545.907288,172.366669 
	C551.261353,149.706757 536.586731,127.077507 513.633179,123.183777 
	C496.930756,120.350479 482.843140,125.731110 472.916809,139.645523 
	C462.824646,153.792343 462.516266,169.107895 471.217133,183.851532 
	C479.958710,198.664124 493.626984,205.029587 510.895477,203.506485 
	C519.672607,202.732300 526.936646,198.545059 533.821594,193.608063 
	C534.471985,194.007248 534.957581,194.189438 535.288025,194.524536 
	C565.939880,225.603790 596.605957,256.669189 627.138306,287.865387 
	C628.566040,289.324158 629.473145,291.953735 629.481079,294.042450 
	C629.620667,330.707458 629.525879,367.373352 629.665039,404.038391 
	C629.679688,407.905975 628.336853,408.788116 624.760681,408.791016 
	C610.762695,408.802338 596.764954,409.100464 582.766724,409.249542 
	C581.683838,409.261078 580.597412,408.943268 579.350098,408.753876 
	C579.350098,406.624207 579.350159,404.796570 579.350159,402.968903 
	C579.349854,383.969482 579.362854,364.970062 579.342957,345.970642 
	C579.334473,337.882599 575.929932,333.473145 569.675964,333.325775 
	C563.575500,333.182037 559.810669,337.868866 559.781128,345.732452 
	C559.750488,353.898743 559.773071,362.065247 559.772888,370.231659 
	C559.772644,383.378967 559.772827,396.526276 559.772827,410.116638 
	C544.299805,411.055206 529.143494,411.974548 513.612183,412.916656 
	C513.612183,410.396118 513.612122,408.581116 513.612122,406.766113 
	C513.611938,371.267212 513.620239,335.768280 513.591125,300.269409 
	C513.589355,298.115906 513.835022,295.714630 512.994873,293.870972 
	C511.897888,291.463684 510.275574,288.710999 508.101990,287.485657 
	C500.722778,283.325684 493.799103,288.787415 493.801300,298.427032 
	C493.809662,335.425812 493.822968,372.424561 493.834320,409.423340 
	C493.834869,411.217438 493.834381,413.011566 493.834381,414.163208 
	C479.052643,417.276672 464.895172,420.202789 450.764191,423.251495 
	C437.848969,426.037933 429.137360,433.689941 426.220764,446.648468 
	C422.829468,461.716125 419.970673,476.919708 417.462280,492.160004 
	C416.734467,496.582214 415.433685,497.791809 411.039001,497.774902 
	C368.207611,497.610107 325.375183,497.623230 282.543640,497.764008 
	C278.644409,497.776825 276.860901,496.798187 275.399231,492.924164 
	C268.427368,474.446198 249.175064,463.846497 230.059006,467.472900 
	C210.685257,471.148193 196.296890,488.201721 196.488098,507.262115 
	C196.687805,527.170776 210.929108,544.801270 229.241745,547.810486 
	C249.958664,551.214783 268.970764,540.738037 275.691833,521.841003 
	C276.940460,518.330261 278.625641,517.505615 282.074829,517.514526 
	C324.573242,517.624084 367.072052,517.585938 409.570740,517.585815 
	C411.179474,517.585815 412.788177,517.585754 414.722198,517.585754 
	C413.956757,530.361694 413.233704,542.430725 412.482819,554.964050 
	C410.459137,554.964050 408.663483,554.964050 406.867828,554.964050 
	C372.868866,554.964050 338.869904,554.963501 304.870941,554.964355 
	C294.345398,554.964600 289.932312,557.820557 289.819763,564.698608 
	C289.705994,571.651794 294.359039,574.691345 305.135345,574.691895 
	C338.634308,574.693604 372.133301,574.692627 405.632263,574.692627 
	C407.571381,574.692627 409.510498,574.692566 411.693970,574.692566 
	C411.693970,587.935730 411.693970,600.518799 411.693970,613.687805 
	C409.429779,613.687805 407.479889,613.687805 405.529999,613.687805 
	C369.031097,613.687805 332.531799,613.778015 296.033752,613.602173 
	C289.682068,613.571594 285.157990,614.832581 280.172607,619.877502 
	C248.199890,652.232056 215.546829,683.914001 183.182129,715.882568 
	C180.974747,718.062927 179.103760,718.856750 175.785995,718.165466 
	C160.645233,715.010620 147.401031,718.883850 136.608704,730.159424 
	C124.337921,742.979675 122.328514,764.085388 131.806274,779.264648 
	C141.835571,795.327148 161.409378,802.614136 179.207581,796.911377 
	C196.911469,791.238831 208.536194,773.895569 207.413239,755.479370 
	C206.822067,745.784180 202.857849,737.622803 197.075089,730.076721 
	C197.813385,729.195496 198.289322,728.520447 198.868942,727.950989 
	C229.652573,697.706177 260.409729,667.434082 291.334686,637.334412 
	C292.976532,635.736389 296.041077,634.902954 298.448334,634.892822 
	C334.446594,634.740784 370.445679,634.787415 406.444580,634.787231 
	C408.067230,634.787231 409.689880,634.787292 412.170776,634.787292 
	C412.170776,651.702942 412.170776,668.108887 412.170776,684.813965 
	C410.748810,684.813965 408.925690,684.813904 407.102539,684.813904 
	C387.769806,684.814148 368.433197,684.617737 349.107971,684.998535 
	C345.686523,685.066040 341.342285,686.702393 339.218719,689.162964 
	C337.470154,691.189026 337.522339,695.734802 338.316132,698.759949 
	C339.466370,703.143677 343.648804,704.374939 347.907715,704.383057 
	C368.073700,704.421387 388.239746,704.403320 408.405792,704.405334 
	C410.179108,704.405518 411.952423,704.405396 413.868164,704.405396 
	C415.201752,719.938965 416.490204,734.947205 417.823730,750.480103 
	C415.534546,750.480103 413.734406,750.480103 411.934235,750.480103 
	C375.935333,750.480164 339.936432,750.460571 303.937622,750.520935 
	C301.306885,750.525330 298.561035,750.734558 296.073029,751.506836 
	C291.960785,752.783264 289.900391,756.125793 289.864716,760.276367 
	C289.829437,764.379028 291.617279,767.812805 295.786285,769.211304 
	C297.950409,769.937195 300.312836,770.417480 302.586365,770.420288 
	C340.251068,770.467285 377.916138,770.479675 415.580231,770.302429 
	C419.281830,770.285034 420.242798,771.611267 420.931458,774.951843 
	C423.648712,788.132629 426.563293,801.279175 429.754730,814.352905 
	C431.208740,820.309326 434.775574,825.119263 439.740234,828.892273 
	C449.518585,836.323608 460.868530,840.018188 472.569489,842.833374 
	C480.438324,844.726624 488.381104,846.312317 496.443237,848.068726 
	C496.443237,850.182190 496.443207,851.832703 496.443207,853.483276 
	C496.443176,897.315247 496.387177,941.147461 496.535980,984.978943 
	C496.549744,989.039062 495.441956,990.925720 491.501495,992.426147 
	C472.789276,999.551147 462.289185,1018.999268 466.304718,1038.291504 
	C470.257080,1057.280151 487.101471,1071.025024 506.371613,1070.985474 
	C525.797852,1070.945679 542.981384,1056.786621 546.628357,1037.814453 
	C550.271851,1018.860413 539.582581,999.441406 521.244446,992.376465 
	C517.588440,990.968018 516.265686,989.405579 516.282532,985.343689 
	C516.461060,942.345825 516.390076,899.346802 516.403809,856.348145 
	C516.404358,854.576599 516.562683,852.805115 516.667236,850.620667 
	C529.338318,851.694580 541.490967,852.724609 553.854065,853.772461 
	C553.854065,856.233765 553.854065,858.049622 553.854065,859.865479 
	C553.854126,894.531067 553.852966,929.196716 553.854919,963.862305 
	C553.855469,973.298584 557.021790,977.853943 563.598267,977.900085 
	C570.268799,977.946899 573.465820,973.454468 573.467224,963.981628 
	C573.472351,929.649353 573.469299,895.317017 573.469299,860.984741 
	C573.469299,859.051453 573.469360,857.118225 573.469360,855.267517 
	C585.047974,855.267517 596.014954,855.502563 606.963745,855.159241 
	C611.770203,855.008606 612.714905,856.762329 612.696594,861.188843 
	C612.537659,899.520325 612.667114,937.853027 612.519653,976.184631 
	C612.502930,980.541443 613.838501,983.622253 616.885681,986.698608 
	C649.131531,1019.253845 681.228088,1051.956909 713.433105,1084.552734 
	C715.632812,1086.779053 716.002258,1088.733398 715.675293,1091.950684 
	C715.045227,1098.150635 714.625549,1104.754272 716.076050,1110.713989 
	C721.155518,1131.585083 740.084351,1144.021606 761.258301,1141.274292 
	C781.487854,1138.649414 796.176941,1121.227417 796.172668,1098.944458 
z"/>
<path fill="#F7F6F3" opacity="1.000000" stroke="none" 
	d="
M796.202148,1099.369141 
	C796.176941,1121.227417 781.487854,1138.649414 761.258301,1141.274292 
	C740.084351,1144.021606 721.155518,1131.585083 716.076050,1110.713989 
	C714.625549,1104.754272 715.045227,1098.150635 715.675293,1091.950684 
	C716.002258,1088.733398 715.632812,1086.779053 713.433105,1084.552734 
	C681.228088,1051.956909 649.131531,1019.253845 616.885681,986.698608 
	C613.838501,983.622253 612.502930,980.541443 612.519653,976.184631 
	C612.667114,937.853027 612.537659,899.520325 612.696594,861.188843 
	C612.714905,856.762329 611.770203,855.008606 606.963745,855.159241 
	C596.014954,855.502563 585.047974,855.267517 573.469360,855.267517 
	C573.469360,857.118225 573.469299,859.051453 573.469299,860.984741 
	C573.469299,895.317017 573.472351,929.649353 573.467224,963.981628 
	C573.465820,973.454468 570.268799,977.946899 563.598267,977.900085 
	C557.021790,977.853943 553.855469,973.298584 553.854919,963.862305 
	C553.852966,929.196716 553.854126,894.531067 553.854065,859.865479 
	C553.854065,858.049622 553.854065,856.233765 553.854065,853.772461 
	C541.490967,852.724609 529.338318,851.694580 516.667236,850.620667 
	C516.562683,852.805115 516.404358,854.576599 516.403809,856.348145 
	C516.390076,899.346802 516.461060,942.345825 516.282532,985.343689 
	C516.265686,989.405579 517.588440,990.968018 521.244446,992.376465 
	C539.582581,999.441406 550.271851,1018.860413 546.628357,1037.814453 
	C542.981384,1056.786621 525.797852,1070.945679 506.371613,1070.985474 
	C487.101471,1071.025024 470.257080,1057.280151 466.304718,1038.291504 
	C462.289185,1018.999268 472.789276,999.551147 491.501495,992.426147 
	C495.441956,990.925720 496.549744,989.039062 496.535980,984.978943 
	C496.387177,941.147461 496.443176,897.315247 496.443207,853.483276 
	C496.443207,851.832703 496.443237,850.182190 496.443237,848.068726 
	C488.381104,846.312317 480.438324,844.726624 472.569489,842.833374 
	C460.868530,840.018188 449.518585,836.323608 439.740234,828.892273 
	C434.775574,825.119263 431.208740,820.309326 429.754730,814.352905 
	C426.563293,801.279175 423.648712,788.132629 420.931458,774.951843 
	C420.242798,771.611267 419.281830,770.285034 415.580231,770.302429 
	C377.916138,770.479675 340.251068,770.467285 302.586365,770.420288 
	C300.312836,770.417480 297.950409,769.937195 295.786285,769.211304 
	C291.617279,767.812805 289.829437,764.379028 289.864716,760.276367 
	C289.900391,756.125793 291.960785,752.783264 296.073029,751.506836 
	C298.561035,750.734558 301.306885,750.525330 303.937622,750.520935 
	C339.936432,750.460571 375.935333,750.480164 411.934235,750.480103 
	C413.734406,750.480103 415.534546,750.480103 417.823730,750.480103 
	C416.490204,734.947205 415.201752,719.938965 413.868164,704.405396 
	C411.952423,704.405396 410.179108,704.405518 408.405792,704.405334 
	C388.239746,704.403320 368.073700,704.421387 347.907715,704.383057 
	C343.648804,704.374939 339.466370,703.143677 338.316132,698.759949 
	C337.522339,695.734802 337.470154,691.189026 339.218719,689.162964 
	C341.342285,686.702393 345.686523,685.066040 349.107971,684.998535 
	C368.433197,684.617737 387.769806,684.814148 407.102539,684.813904 
	C408.925690,684.813904 410.748810,684.813965 412.170776,684.813965 
	C412.170776,668.108887 412.170776,651.702942 412.170776,634.787292 
	C409.689880,634.787292 408.067230,634.787231 406.444580,634.787231 
	C370.445679,634.787415 334.446594,634.740784 298.448334,634.892822 
	C296.041077,634.902954 292.976532,635.736389 291.334686,637.334412 
	C260.409729,667.434082 229.652573,697.706177 198.868942,727.950989 
	C198.289322,728.520447 197.813385,729.195496 197.075089,730.076721 
	C202.857849,737.622803 206.822067,745.784180 207.413239,755.479370 
	C208.536194,773.895569 196.911469,791.238831 179.207581,796.911377 
	C161.409378,802.614136 141.835571,795.327148 131.806274,779.264648 
	C122.328514,764.085388 124.337921,742.979675 136.608704,730.159424 
	C147.401031,718.883850 160.645233,715.010620 175.785995,718.165466 
	C179.103760,718.856750 180.974747,718.062927 183.182129,715.882568 
	C215.546829,683.914001 248.199890,652.232056 280.172607,619.877502 
	C285.157990,614.832581 289.682068,613.571594 296.033752,613.602173 
	C332.531799,613.778015 369.031097,613.687805 405.529999,613.687805 
	C407.479889,613.687805 409.429779,613.687805 411.693970,613.687805 
	C411.693970,600.518799 411.693970,587.935730 411.693970,574.692566 
	C409.510498,574.692566 407.571381,574.692627 405.632263,574.692627 
	C372.133301,574.692627 338.634308,574.693604 305.135345,574.691895 
	C294.359039,574.691345 289.705994,571.651794 289.819763,564.698608 
	C289.932312,557.820557 294.345398,554.964600 304.870941,554.964355 
	C338.869904,554.963501 372.868866,554.964050 406.867828,554.964050 
	C408.663483,554.964050 410.459137,554.964050 412.482819,554.964050 
	C413.233704,542.430725 413.956757,530.361694 414.722198,517.585754 
	C412.788177,517.585754 411.179474,517.585815 409.570740,517.585815 
	C367.072052,517.585938 324.573242,517.624084 282.074829,517.514526 
	C278.625641,517.505615 276.940460,518.330261 275.691833,521.841003 
	C268.970764,540.738037 249.958664,551.214783 229.241745,547.810486 
	C210.929108,544.801270 196.687805,527.170776 196.488098,507.262115 
	C196.296890,488.201721 210.685257,471.148193 230.059006,467.472900 
	C249.175064,463.846497 268.427368,474.446198 275.399231,492.924164 
	C276.860901,496.798187 278.644409,497.776825 282.543640,497.764008 
	C325.375183,497.623230 368.207611,497.610107 411.039001,497.774902 
	C415.433685,497.791809 416.734467,496.582214 417.462280,492.160004 
	C419.970673,476.919708 422.829468,461.716125 426.220764,446.648468 
	C429.137360,433.689941 437.848969,426.037933 450.764191,423.251495 
	C464.895172,420.202789 479.052643,417.276672 493.834381,414.163208 
	C493.834381,413.011566 493.834869,411.217438 493.834320,409.423340 
	C493.822968,372.424561 493.809662,335.425812 493.801300,298.427032 
	C493.799103,288.787415 500.722778,283.325684 508.101990,287.485657 
	C510.275574,288.710999 511.897888,291.463684 512.994873,293.870972 
	C513.835022,295.714630 513.589355,298.115906 513.591125,300.269409 
	C513.620239,335.768280 513.611938,371.267212 513.612122,406.766113 
	C513.612122,408.581116 513.612183,410.396118 513.612183,412.916656 
	C529.143494,411.974548 544.299805,411.055206 559.772827,410.116638 
	C559.772827,396.526276 559.772644,383.378967 559.772888,370.231659 
	C559.773071,362.065247 559.750488,353.898743 559.781128,345.732452 
	C559.810669,337.868866 563.575500,333.182037 569.675964,333.325775 
	C575.929932,333.473145 579.334473,337.882599 579.342957,345.970642 
	C579.362854,364.970062 579.349854,383.969482 579.350159,402.968903 
	C579.350159,404.796570 579.350098,406.624207 579.350098,408.753876 
	C580.597412,408.943268 581.683838,409.261078 582.766724,409.249542 
	C596.764954,409.100464 610.762695,408.802338 624.760681,408.791016 
	C628.336853,408.788116 629.679688,407.905975 629.665039,404.038391 
	C629.525879,367.373352 629.620667,330.707458 629.481079,294.042450 
	C629.473145,291.953735 628.566040,289.324158 627.138306,287.865387 
	C596.605957,256.669189 565.939880,225.603790 535.288025,194.524536 
	C534.957581,194.189438 534.471985,194.007248 533.821594,193.608063 
	C526.936646,198.545059 519.672607,202.732300 510.895477,203.506485 
	C493.626984,205.029587 479.958710,198.664124 471.217133,183.851532 
	C462.516266,169.107895 462.824646,153.792343 472.916809,139.645523 
	C482.843140,125.731110 496.930756,120.350479 513.633179,123.183777 
	C536.586731,127.077507 551.261353,149.706757 545.907288,172.366669 
	C545.177551,175.455353 546.088196,177.256653 548.149353,179.344025 
	C580.696960,212.305679 613.145569,245.365067 645.715820,278.304321 
	C648.135864,280.751831 649.175720,283.155457 649.165894,286.601807 
	C649.056580,325.266998 649.096130,363.932587 649.095581,402.598083 
	C649.095520,404.420715 649.095581,406.243378 649.095581,408.762024 
	C662.031616,408.762024 674.743469,408.762024 688.233582,408.762024 
	C688.233582,407.166779 688.233582,405.244537 688.233582,403.322296 
	C688.234009,368.656677 688.236511,333.991089 688.231995,299.325470 
	C688.231445,295.078888 688.439697,290.820770 692.313782,288.106201 
	C695.515198,285.862946 699.009521,285.399078 702.680420,287.372345 
	C706.729370,289.548828 708.014771,293.192657 708.061096,297.362030 
	C708.162964,306.527008 708.058044,315.694122 708.056091,324.860382 
	C708.050537,351.359589 708.054199,377.858765 708.054199,404.357971 
	C708.054199,406.165344 708.054199,407.972748 708.054199,410.289154 
	C720.432739,411.148560 732.495789,411.986053 745.427551,412.883850 
	C745.427551,411.029633 745.427551,409.290009 745.427551,407.550415 
	C745.427429,364.551727 745.368713,321.552826 745.528320,278.554718 
	C745.542542,274.730103 744.302124,273.226501 740.837830,271.890106 
	C723.129089,265.058716 712.292603,247.200546 714.548218,229.184464 
	C716.950928,209.992432 730.833191,196.110504 750.527771,193.205551 
	C768.208801,190.597595 785.486450,200.713699 793.029480,218.090408 
	C802.093262,238.970367 791.778259,263.100006 769.764709,271.849030 
	C766.203064,273.264587 765.142212,274.966492 765.153503,278.687378 
	C765.285400,322.352325 765.283997,366.017914 765.158813,409.682922 
	C765.147766,413.538208 766.010620,414.958679 770.152100,415.603394 
	C782.474365,417.521759 794.685852,420.152985 806.938049,422.519379 
	C823.684998,425.753876 832.812378,436.792511 836.663757,452.552063 
	C839.933472,465.931274 842.407410,479.504883 845.377502,493.680145 
	C846.534851,493.680145 848.325317,493.680573 850.115784,493.680054 
	C886.614502,493.669159 923.113281,493.658264 959.612000,493.647003 
	C964.544495,493.645508 968.898560,494.714600 971.144653,499.780243 
	C973.363403,504.784332 971.056030,510.782990 965.878845,512.465088 
	C963.406799,513.268250 960.641479,513.431946 958.008301,513.436462 
	C923.176147,513.496399 888.343872,513.476440 853.511597,513.476501 
	C851.516235,513.476501 849.520874,513.476501 846.741821,513.476501 
	C847.645020,528.852600 848.535400,544.009521 849.453308,559.636353 
	C851.517517,559.636353 853.323303,559.636230 855.129089,559.636292 
	C874.628479,559.637268 894.127930,559.644470 913.627319,559.634460 
	C917.918396,559.632263 921.473267,560.959534 923.613770,564.955872 
	C925.558044,568.585754 925.511292,572.600342 922.589661,575.114746 
	C920.068970,577.284180 916.244507,578.986694 912.961182,579.049316 
	C893.968689,579.411316 874.965698,579.226257 855.966309,579.226379 
	C854.147766,579.226379 852.329163,579.226379 850.203979,579.226379 
	C850.203979,596.280579 850.203979,612.993286 850.203979,630.295471 
	C852.357666,630.295471 854.140930,630.295410 855.924194,630.295471 
	C891.756409,630.296448 927.589050,630.362610 963.420166,630.164917 
	C966.062927,630.150330 969.376221,628.926514 971.230713,627.100098 
	C1001.822571,596.970947 1032.231812,566.656372 1062.669922,536.371277 
	C1063.354248,535.690369 1063.898315,534.868408 1063.050537,534.403442 
	C1060.256592,526.902527 1056.255249,519.611694 1054.905884,511.859344 
	C1051.495728,492.265808 1062.564941,474.545349 1081.195435,467.727570 
	C1099.136841,461.161957 1119.398071,468.189880 1129.635742,484.529846 
	C1139.956421,501.002197 1137.388794,522.230957 1123.126709,535.745544 
	C1112.722900,545.604187 1100.205933,548.960449 1086.212158,546.078186 
	C1083.069336,545.430969 1081.037964,545.772095 1078.714111,548.076721 
	C1056.708496,569.900085 1034.511475,591.530640 1012.517029,613.365234 
	C1001.551941,624.250549 990.820618,635.375122 980.145142,646.545898 
	C977.372070,649.447632 974.396606,650.459717 970.443665,650.447754 
	C931.945129,650.331360 893.445923,650.451782 854.947815,650.278564 
	C850.427917,650.258240 848.843811,651.381287 848.978882,656.062500 
	C849.290710,666.863831 849.077881,677.680359 849.077881,689.312805 
	C850.015808,689.312805 851.925598,689.312805 853.835388,689.312805 
	C888.500977,689.312866 923.166687,689.288269 957.832092,689.359558 
	C960.618896,689.365295 963.514282,689.669861 966.164612,690.475647 
	C970.149780,691.687195 972.435181,695.205383 971.742920,698.918213 
	C971.148926,702.104004 968.902649,705.462036 966.421509,707.648071 
	C964.746155,709.124146 961.395142,709.061584 958.792419,709.066895 
	C922.960388,709.140015 887.128174,709.105347 851.295959,709.097107 
	C849.975769,709.096802 848.655579,709.097046 846.639832,709.097046 
	C845.570557,721.451050 844.518677,733.604309 843.408081,746.435242 
	C845.548767,746.435242 847.333923,746.435242 849.119080,746.435242 
	C892.451111,746.435242 935.783264,746.377808 979.114746,746.532227 
	C983.052063,746.546265 984.764404,745.429810 986.182312,741.680176 
	C992.335876,725.408142 1008.264648,714.844177 1025.015869,715.403687 
	C1042.780884,715.996948 1057.986328,727.400269 1063.219971,744.054810 
	C1068.444824,760.681335 1062.754028,778.500061 1048.810791,789.171448 
	C1027.631714,805.380737 995.377441,796.188538 986.279907,771.109314 
	C984.855408,767.182617 983.010681,766.282715 979.170166,766.293579 
	C935.005249,766.418640 890.839539,766.438049 846.674866,766.272400 
	C842.278320,766.255920 840.910095,767.530884 840.082031,771.878967 
	C837.440857,785.747742 834.356445,799.545898 830.963501,813.252563 
	C828.946106,821.402405 823.649902,827.154724 816.020203,830.999878 
	C802.463745,837.832031 787.913452,841.284302 773.169189,844.023193 
	C769.045898,844.789185 767.888123,846.309814 767.907898,850.487122 
	C768.087280,888.318481 768.020508,926.151001 767.993286,963.983215 
	C767.991760,966.134277 767.982483,968.350220 767.495117,970.422668 
	C766.453064,974.853210 762.429260,977.871216 758.040894,977.881287 
	C753.625061,977.891418 749.678650,974.914429 748.624756,970.413147 
	C748.139404,968.339722 748.124817,966.125000 748.123169,963.974121 
	C748.095337,927.475220 748.103149,890.976379 748.103027,854.477478 
	C748.103027,852.524963 748.103027,850.572449 748.103027,848.345642 
	C732.582581,849.786255 717.689209,851.168762 702.106445,852.615173 
	C702.106445,854.457947 702.106506,856.205200 702.106506,857.952454 
	C702.106384,878.451843 702.121704,898.951172 702.093384,919.450562 
	C702.087524,923.679138 700.810242,927.303406 696.788269,929.461121 
	C693.153442,931.411194 689.042297,931.473145 686.643677,928.499084 
	C684.364441,925.672974 682.657471,921.526306 682.585510,917.922546 
	C682.199280,898.597534 682.402771,879.260742 682.402527,859.927979 
	C682.402527,858.138672 682.402527,856.349304 682.402527,854.285706 
	C680.767761,854.151978 679.652588,853.957703 678.543091,853.985840 
	C664.716736,854.336914 650.892700,854.827026 637.064453,855.020081 
	C633.622375,855.068115 632.466064,856.071838 632.475708,859.589905 
	C632.577209,896.588440 632.499451,933.587585 632.626953,970.585999 
	C632.633545,972.503418 633.554016,974.899536 634.881836,976.259827 
	C665.259033,1007.379883 695.751587,1038.387207 726.232117,1069.406372 
	C726.572876,1069.753174 727.038452,1069.977295 727.732971,1070.457153 
	C742.783630,1059.020386 759.147522,1056.353760 776.021973,1065.856567 
	C788.590759,1072.934570 795.293945,1084.357788 796.202148,1099.369141 
M489.426331,435.768311 
	C477.985138,437.927338 466.525696,439.995361 455.110626,442.284576 
	C449.578064,443.394135 445.797516,446.748901 444.627502,452.416626 
	C442.072906,464.791077 438.744568,477.093445 437.356476,489.605469 
	C432.040222,537.525330 430.589020,585.666382 431.726227,633.832764 
	C432.496826,666.470947 433.790863,699.139282 436.328339,731.678894 
	C438.097198,754.361816 442.447784,776.839050 445.491425,799.428833 
	C447.020935,810.780701 453.699738,816.682495 464.353394,819.965332 
	C489.535370,827.725098 515.424316,831.276733 541.516602,832.966003 
	C609.820068,837.388184 678.098572,837.288330 746.060852,828.039062 
	C763.819519,825.622192 781.330750,821.275208 798.876160,817.450195 
	C807.633301,815.541077 812.477600,809.855103 814.591736,800.807251 
	C821.326172,771.985596 824.435425,742.728088 826.386719,713.289795 
	C830.015808,658.539551 831.309692,603.748169 828.794373,548.915283 
	C827.450745,519.624023 825.603149,490.373932 819.006836,461.641541 
	C816.517273,450.797150 812.153320,442.380524 799.656250,440.818298 
	C775.061096,437.743652 750.585144,432.664886 725.913147,431.486481 
	C682.002441,429.389130 637.965332,428.474304 594.013855,429.159943 
	C559.423767,429.699524 524.882935,433.391449 489.426331,435.768311 
M1106.786743,488.572388 
	C1105.913330,488.093536 1105.059082,487.574829 1104.163452,487.142029 
	C1095.492310,482.951935 1085.630005,484.925720 1079.243042,492.114319 
	C1072.829346,499.333099 1072.164917,509.701874 1077.586548,517.968201 
	C1082.717896,525.791870 1092.553833,529.246033 1101.672241,526.174133 
	C1109.403198,523.569702 1114.168579,518.029907 1115.667603,510.081543 
	C1117.292603,501.464935 1114.203613,494.426025 1106.786743,488.572388 
M227.663116,488.948608 
	C216.724808,495.618439 213.277191,507.413757 219.151154,518.070679 
	C224.518433,527.808411 236.927841,531.663025 246.737549,526.639648 
	C257.165009,521.299866 261.368347,508.996918 256.528442,498.598389 
	C252.046082,488.968140 238.776062,482.600311 227.663116,488.948608 
M776.692444,1100.566772 
	C776.273621,1098.454712 776.070618,1096.271484 775.400146,1094.242554 
	C771.662048,1082.929932 758.798279,1076.849121 748.087219,1081.236572 
	C736.078979,1086.155396 731.095398,1099.088379 736.847229,1110.405640 
	C740.912903,1118.405151 750.020935,1123.294312 758.217712,1121.877319 
	C768.839905,1120.040894 775.284485,1112.892822 776.692444,1100.566772 
M741.523865,217.981049 
	C733.744629,225.745544 732.129089,235.362778 737.109863,244.257675 
	C741.427979,251.969223 750.897644,256.421692 759.073242,254.584473 
	C768.355835,252.498474 774.907837,245.887711 776.161499,236.689484 
	C777.350464,227.965836 773.858276,221.032501 766.678467,216.145798 
	C759.174072,211.038132 750.306946,211.684402 741.523865,217.981049 
M504.745728,1051.171753 
	C506.071625,1051.156006 507.423523,1051.303833 508.719269,1051.098145 
	C517.739197,1049.666382 523.963318,1044.729004 526.530823,1035.893555 
	C529.049988,1027.224365 526.595886,1019.724426 519.692932,1014.008545 
	C512.979553,1008.449585 505.457275,1007.315979 497.411957,1011.204529 
	C489.234253,1015.157104 484.410858,1023.606079 485.416443,1032.304077 
	C486.546143,1042.075562 493.197479,1048.848999 504.745728,1051.171753 
M166.548569,736.880493 
	C154.284393,737.571350 145.472519,746.683289 145.727585,758.410583 
	C145.975113,769.791626 155.134918,778.876648 166.450165,778.963806 
	C177.794556,779.051270 187.383728,770.073608 187.822159,758.954834 
	C188.280029,747.342529 179.449814,737.793274 166.548569,736.880493 
M1006.533264,745.178955 
	C1006.204468,745.755859 1005.845398,746.317810 1005.551453,746.911926 
	C1001.269104,755.567383 1003.110779,765.850891 1010.034912,771.995667 
	C1017.575745,778.687744 1027.897217,779.366821 1036.264526,773.721252 
	C1044.015869,768.491272 1047.272949,758.617065 1044.067017,749.513428 
	C1041.422974,742.005432 1035.901978,737.317810 1028.273804,735.830078 
	C1019.505310,734.119873 1012.333252,737.479797 1006.533264,745.178955 
M524.331543,152.418655 
	C523.552612,151.347031 522.885742,150.167862 521.976624,149.221222 
	C516.140930,143.144516 509.190399,140.300507 500.828674,142.763687 
	C492.259369,145.288010 486.713440,151.083420 485.426575,159.923752 
	C484.113800,168.942307 487.720428,176.190521 495.512207,181.115662 
	C503.168518,185.955200 512.760498,185.047531 520.017029,178.911514 
	C527.328735,172.728836 529.085754,163.136856 524.331543,152.418655 
z"/>
<path fill="#02114A" opacity="0" stroke="none" 
	d="
M489.873260,435.725739 
	C524.882935,433.391449 559.423767,429.699524 594.013855,429.159943 
	C637.965332,428.474304 682.002441,429.389130 725.913147,431.486481 
	C750.585144,432.664886 775.061096,437.743652 799.656250,440.818298 
	C812.153320,442.380524 816.517273,450.797150 819.006836,461.641541 
	C825.603149,490.373932 827.450745,519.624023 828.794373,548.915283 
	C831.309692,603.748169 830.015808,658.539551 826.386719,713.289795 
	C824.435425,742.728088 821.326172,771.985596 814.591736,800.807251 
	C812.477600,809.855103 807.633301,815.541077 798.876160,817.450195 
	C781.330750,821.275208 763.819519,825.622192 746.060852,828.039062 
	C678.098572,837.288330 609.820068,837.388184 541.516602,832.966003 
	C515.424316,831.276733 489.535370,827.725098 464.353394,819.965332 
	C453.699738,816.682495 447.020935,810.780701 445.491425,799.428833 
	C442.447784,776.839050 438.097198,754.361816 436.328339,731.678894 
	C433.790863,699.139282 432.496826,666.470947 431.726227,633.832764 
	C430.589020,585.666382 432.040222,537.525330 437.356476,489.605469 
	C438.744568,477.093445 442.072906,464.791077 444.627502,452.416626 
	C445.797516,446.748901 449.578064,443.394135 455.110626,442.284576 
	C466.525696,439.995361 477.985138,437.927338 489.873260,435.725739 
M581.184998,740.555176 
	C584.746216,751.563660 588.307434,762.572144 591.868591,773.580627 
	C592.338013,773.581421 592.807495,773.582153 593.276917,773.582886 
	C604.861877,738.796387 616.348877,703.976807 628.059387,669.232666 
	C639.689453,634.727295 651.544312,600.297607 663.300537,565.834778 
	C663.800964,565.942871 664.301453,566.051025 664.801880,566.159180 
	C665.219116,567.008484 665.728882,567.825439 666.039490,568.712158 
	C669.775818,579.376953 673.798035,589.957336 677.045898,600.769897 
	C678.393860,605.257446 680.543213,606.325867 684.835876,606.309814 
	C720.993652,606.174683 757.152161,606.232971 793.310486,606.232971 
	C801.311768,606.232971 801.362183,606.251343 804.097717,598.810303 
	C805.657654,594.566895 807.021423,590.251404 808.715271,585.255676 
	C805.571960,585.255676 803.596863,585.255554 801.621765,585.255676 
	C767.296082,585.257751 732.970215,585.217407 698.644836,585.323486 
	C694.969788,585.334839 693.121826,584.423279 691.903320,580.560425 
	C686.554138,563.602661 680.749268,546.788757 675.124878,529.917664 
	C671.773865,519.865601 668.451233,509.804047 665.115845,499.746735 
	C652.047180,533.896240 639.906555,568.037170 628.431213,602.400269 
	C616.983154,636.681824 605.883667,671.074768 593.107849,704.980286 
	C591.825195,703.780884 591.296936,702.788513 590.953552,701.735901 
	C583.331726,678.368347 575.682373,655.009460 568.178040,631.604126 
	C567.083618,628.190735 565.746277,626.390564 561.649048,626.414917 
	C530.490417,626.599915 499.330231,626.513123 468.170532,626.544678 
	C466.606842,626.546265 465.043518,626.858154 463.174347,627.058350 
	C465.097931,632.731934 466.907257,637.723816 468.469269,642.791870 
	C469.594666,646.443237 471.476257,647.896484 475.626038,647.848938 
	C497.951477,647.593140 520.281738,647.663391 542.609680,647.761169 
	C551.008789,647.797913 550.927368,645.852417 553.735657,655.380127 
	C554.297424,657.286194 554.848022,659.196533 555.458069,661.087341 
	C563.927368,687.333923 572.406006,713.577454 581.184998,740.555176 
z"/>
<path fill="#05154D" opacity="0" stroke="none" 
	d="
M1107.095825,488.771820 
	C1114.203613,494.426025 1117.292603,501.464935 1115.667603,510.081543 
	C1114.168579,518.029907 1109.403198,523.569702 1101.672241,526.174133 
	C1092.553833,529.246033 1082.717896,525.791870 1077.586548,517.968201 
	C1072.164917,509.701874 1072.829346,499.333099 1079.243042,492.114319 
	C1085.630005,484.925720 1095.492310,482.951935 1104.163452,487.142029 
	C1105.059082,487.574829 1105.913330,488.093536 1107.095825,488.771820 
z"/>
<path fill="#06154D" opacity="0" stroke="none" 
	d="
M228.011810,488.807465 
	C238.776062,482.600311 252.046082,488.968140 256.528442,498.598389 
	C261.368347,508.996918 257.165009,521.299866 246.737549,526.639648 
	C236.927841,531.663025 224.518433,527.808411 219.151154,518.070679 
	C213.277191,507.413757 216.724808,495.618439 228.011810,488.807465 
z"/>
<path fill="#06154D" opacity="0" stroke="none" 
	d="
M776.692505,1100.976074 
	C775.284485,1112.892822 768.839905,1120.040894 758.217712,1121.877319 
	C750.020935,1123.294312 740.912903,1118.405151 736.847229,1110.405640 
	C731.095398,1099.088379 736.078979,1086.155396 748.087219,1081.236572 
	C758.798279,1076.849121 771.662048,1082.929932 775.400146,1094.242554 
	C776.070618,1096.271484 776.273621,1098.454712 776.692505,1100.976074 
z"/>
<path fill="#06154D" opacity="0" stroke="none" 
	d="
M741.814453,217.758331 
	C750.306946,211.684402 759.174072,211.038132 766.678467,216.145798 
	C773.858276,221.032501 777.350464,227.965836 776.161499,236.689484 
	C774.907837,245.887711 768.355835,252.498474 759.073242,254.584473 
	C750.897644,256.421692 741.427979,251.969223 737.109863,244.257675 
	C732.129089,235.362778 733.744629,225.745544 741.814453,217.758331 
z"/>
<path fill="#05154D" opacity="0" stroke="none" 
	d="
M504.310181,1051.136475 
	C493.197479,1048.848999 486.546143,1042.075562 485.416443,1032.304077 
	C484.410858,1023.606079 489.234253,1015.157104 497.411957,1011.204529 
	C505.457275,1007.315979 512.979553,1008.449585 519.692932,1014.008545 
	C526.595886,1019.724426 529.049988,1027.224365 526.530823,1035.893555 
	C523.963318,1044.729004 517.739197,1049.666382 508.719269,1051.098145 
	C507.423523,1051.303833 506.071625,1051.156006 504.310181,1051.136475 
z"/>
<path fill="#06154D" opacity="0" stroke="none" 
	d="
M166.985016,736.886597 
	C179.449814,737.793274 188.280029,747.342529 187.822159,758.954834 
	C187.383728,770.073608 177.794556,779.051270 166.450165,778.963806 
	C155.134918,778.876648 145.975113,769.791626 145.727585,758.410583 
	C145.472519,746.683289 154.284393,737.571350 166.985016,736.886597 
z"/>
<path fill="#06154D" opacity="0" stroke="none" 
	d="
M1006.717529,744.860474 
	C1012.333252,737.479797 1019.505310,734.119873 1028.273804,735.830078 
	C1035.901978,737.317810 1041.422974,742.005432 1044.067017,749.513428 
	C1047.272949,758.617065 1044.015869,768.491272 1036.264526,773.721252 
	C1027.897217,779.366821 1017.575745,778.687744 1010.034912,771.995667 
	C1003.110779,765.850891 1001.269104,755.567383 1005.551453,746.911926 
	C1005.845398,746.317810 1006.204468,745.755859 1006.717529,744.860474 
z"/>
<path fill="#05154C" opacity="0" stroke="none" 
	d="
M524.542725,152.735306 
	C529.085754,163.136856 527.328735,172.728836 520.017029,178.911514 
	C512.760498,185.047531 503.168518,185.955200 495.512207,181.115662 
	C487.720428,176.190521 484.113800,168.942307 485.426575,159.923752 
	C486.713440,151.083420 492.259369,145.288010 500.828674,142.763687 
	C509.190399,140.300507 516.140930,143.144516 521.976624,149.221222 
	C522.885742,150.167862 523.552612,151.347031 524.542725,152.735306 
z"/>
<path fill="#F3F2F0" opacity="1.000000" stroke="none" 
	d="
M581.033691,740.188477 
	C572.406006,713.577454 563.927368,687.333923 555.458069,661.087341 
	C554.848022,659.196533 554.297424,657.286194 553.735657,655.380127 
	C550.927368,645.852417 551.008789,647.797913 542.609680,647.761169 
	C520.281738,647.663391 497.951477,647.593140 475.626038,647.848938 
	C471.476257,647.896484 469.594666,646.443237 468.469269,642.791870 
	C466.907257,637.723816 465.097931,632.731934 463.174347,627.058350 
	C465.043518,626.858154 466.606842,626.546265 468.170532,626.544678 
	C499.330231,626.513123 530.490417,626.599915 561.649048,626.414917 
	C565.746277,626.390564 567.083618,628.190735 568.178040,631.604126 
	C575.682373,655.009460 583.331726,678.368347 590.953552,701.735901 
	C591.296936,702.788513 591.825195,703.780884 593.107849,704.980286 
	C605.883667,671.074768 616.983154,636.681824 628.431213,602.400269 
	C639.906555,568.037170 652.047180,533.896240 665.115845,499.746735 
	C668.451233,509.804047 671.773865,519.865601 675.124878,529.917664 
	C680.749268,546.788757 686.554138,563.602661 691.903320,580.560425 
	C693.121826,584.423279 694.969788,585.334839 698.644836,585.323486 
	C732.970215,585.217407 767.296082,585.257751 801.621765,585.255676 
	C803.596863,585.255554 805.571960,585.255676 808.715271,585.255676 
	C807.021423,590.251404 805.657654,594.566895 804.097717,598.810303 
	C801.362183,606.251343 801.311768,606.232971 793.310486,606.232971 
	C757.152161,606.232971 720.993652,606.174683 684.835876,606.309814 
	C680.543213,606.325867 678.393860,605.257446 677.045898,600.769897 
	C673.798035,589.957336 669.775818,579.376953 666.039490,568.712158 
	C665.728882,567.825439 665.219116,567.008484 664.801880,566.159180 
	C664.301453,566.051025 663.800964,565.942871 663.300537,565.834778 
	C651.544312,600.297607 639.689453,634.727295 628.059387,669.232666 
	C616.348877,703.976807 604.861877,738.796387 593.276917,773.582886 
	C592.807495,773.582153 592.338013,773.581421 591.868591,773.580627 
	C588.307434,762.572144 584.746216,751.563660 581.033691,740.188477 
z"/>
</svg>